Coordinates
version=1
nRows=6
nColumns=36
inDegrees=yes

Units are S.I. units (second, meters, Newtons, ...)
If the header above contains a line with 'inDegrees', this indicates whether rotational values are in degrees (yes) or radians (no).

endheader
time	pelvis_tilt	pelvis_list	pelvis_rotation	pelvis_tx	pelvis_ty	pelvis_tz	hip_flexion_r	hip_adduction_r	hip_rotation_r	knee_angle_r	knee_angle_r_beta	ankle_angle_r	subtalar_angle_r	mtp_angle_r	hip_flexion_l	hip_adduction_l	hip_rotation_l	knee_angle_l	knee_angle_l_beta	ankle_angle_l	subtalar_angle_l	mtp_angle_l	lumbar_extension	lumbar_bending	lumbar_rotation	arm_flex_r	arm_add_r	arm_rot_r	elbow_flex_r	pro_sup_r	arm_flex_l	arm_add_l	arm_rot_l	elbow_flex_l	pro_sup_l
      0.00000000	      3.64548545	     -0.30026383	      6.13882730	     -0.98650562	      1.31580891	     -0.06670500	     -5.85410501	     -0.20179724	     -2.94587426	      5.93735647	      0.10362642	      4.31775834	    -14.41915944	     -5.85168453	      0.72059888	     -1.50541374	      9.57260875	     14.20171184	      0.24786663	      8.24962100	     -5.60534198	     -5.85168453	     -8.42320010	      2.82929891	      2.03616864	      6.40372640	     -5.74055681	     26.03021207	     19.61935322	     70.37460942	      2.66270339	     -3.51005520	     17.23944044	     20.76624456	     64.96935039
      0.00416670	      2.33756468	     -0.13746426	      6.54827225	     -0.98647885	      1.31087122	     -0.06716829	     -4.93464296	     -0.06412111	     -2.93063936	      4.72217490	      0.08241750	      4.92057445	    -13.19001939	     -6.62797122	      1.98226223	     -0.70386299	     12.80621876	     13.36319570	      0.23323176	      7.03421425	     -6.95048173	     -6.62797122	     -6.11446751	      2.44619899	      2.52738977	      5.41097220	     -4.99441607	     18.75225867	     19.24988234	     78.21352230	      2.88953758	     -3.22717135	     17.05565283	     20.57960569	     66.78385642
      0.00833330	      1.07538242	      0.05203966	      6.58289937	     -0.98597143	      1.30963028	     -0.06596284	     -3.98151512	     -0.12642298	     -3.38063877	      3.77533225	      0.06589198	      4.24469198	    -14.44310591	     -6.76703763	      3.33221596	     -0.36976846	     13.72114490	     13.28713430	      0.23190424	      6.49105907	     -7.95862604	     -6.76703763	     -4.60196286	      1.59649006	      3.36895589	      4.48982024	     -4.01739068	     14.60780444	     19.54608426	     77.57753844	      3.12781438	     -3.18095131	     16.11028038	     20.13335085	     66.42381421
      0.01250000	      1.58243010	      0.22001038	      6.47035572	     -0.98620100	      1.31401487	     -0.06569446	     -4.70352895	     -0.24086008	     -3.63851368	      3.35781708	      0.05860496	      3.99569753	    -14.40243639	     -7.07246141	      2.45361406	     -0.16351821	     14.71212870	     12.60273363	      0.21995920	      6.29115617	     -8.58529316	     -7.07246141	     -5.42963386	      1.19046428	      4.12734683	      3.98779110	     -3.40367866	      9.29575805	     20.10058383	     85.25448114	      3.74654150	     -3.15360249	     15.53970521	     20.15914578	     69.07130154
      0.01666670	      1.87741740	      0.22499339	      6.21401895	     -0.98641824	      1.31386148	     -0.06501983	     -5.08700269	     -0.19823270	     -3.54629122	      3.16171483	      0.05518233	      3.74039554	    -14.80704076	     -7.11821269	      1.86642994	     -0.17425779	     15.33612646	     12.06195043	      0.21052075	      6.24386452	     -9.00596008	     -7.11821269	     -5.83262772	      1.13147983	      4.47650794	      3.83203559	     -3.25849266	      9.33334630	     20.26108775	     84.08662280	      3.93670433	     -3.03500594	     15.36058191	     20.28402123	     68.54248644
      0.02083330	      2.21474482	      0.17709336	      5.82416435	     -0.98650437	      1.31380853	     -0.06480791	     -5.39064501	     -0.10104870	     -3.34353889	      3.11208929	      0.05431620	      3.40853149	    -15.40225297	     -7.23717048	      1.28766056	     -0.21119495	     16.09647182	     11.79602816	      0.20587953	      6.27712519	     -9.83629461	     -7.23717048	     -6.30786188	      1.12762470	      4.66821395	      4.03088477	     -3.42566182	     11.13921181	     20.25613487	     84.98589641	      4.09012895	     -3.05644899	     16.16042364	     20.42857148	     69.94600080
